<?xml version="1.0" standalone="no"?><!DOCTYPE svg PUBLIC "-//W3C//DTD SVG 1.1//EN" "http://www.w3.org/Graphics/SVG/1.1/DTD/svg11.dtd"><svg t="1745896627191" class="icon" viewBox="0 0 1024 1024" version="1.1" xmlns="http://www.w3.org/2000/svg" p-id="15435" xmlns:xlink="http://www.w3.org/1999/xlink" width="200" height="200"><path d="M128 64a64 64 0 0 0-64 64v768a64 64 0 0 0 64 64h768a64 64 0 0 0 64-64V128a64 64 0 0 0-64-64H128z m0-64h768a128 128 0 0 1 128 128v768a128 128 0 0 1-128 128H128A128 128 0 0 1 0 896V128A128 128 0 0 1 128 0z" fill="#333333" p-id="15436"></path><path d="M185.024 544H24.704v-64h176.128a38.4 38.4 0 0 1 34.368 21.248l63.168 126.336 116.608-427.52a44.8 44.8 0 0 1 87.296 3.84l96.64 540.8 128.896-368.32a44.8 44.8 0 0 1 82.368-5.248L864.576 480H998.4v64H848.768a38.4 38.4 0 0 1-34.368-21.248l-41.216-82.368-138.048 394.56a44.8 44.8 0 0 1-86.4-6.912l-94.464-528.896L346.88 692.928a44.8 44.8 0 0 1-83.264 8.192L184.96 544z" fill="#333333" p-id="15437"></path></svg>