<?xml version="1.0" standalone="no"?><!DOCTYPE svg PUBLIC "-//W3C//DTD SVG 1.1//EN" "http://www.w3.org/Graphics/SVG/1.1/DTD/svg11.dtd"><svg t="1745896461649" class="icon" viewBox="0 0 1024 1024" version="1.1" xmlns="http://www.w3.org/2000/svg" p-id="4968" xmlns:xlink="http://www.w3.org/1999/xlink" width="200" height="200"><path d="M762.88 128c59.392 0 107.52 48.128 107.52 107.52v552.96a107.52 107.52 0 0 1-107.52 107.52H261.12A107.52 107.52 0 0 1 153.6 788.48V235.52c0-59.392 48.128-107.52 107.52-107.52h501.76z m-62.8736 263.68c-45.4144-1.024-110.7968 25.4976-166.4512 72.96-9.728 7.2704-34.2528 26.2144-42.6496 32.7168l-2.6112 2.048a313.0368 313.0368 0 0 1-37.376 25.6c-27.136 15.3088-54.1184 20.992-94.2592 20.1216-47.9232 1.024-98.5088-11.3152-151.808-36.7616L204.8 788.48a56.32 56.32 0 0 0 56.32 56.32h501.76a56.32 56.32 0 0 0 56.32-56.32V437.5552l-1.3312-1.2288c-36.7104-31.3344-66.1504-43.5712-117.8624-44.6976zM665.6 716.8a25.6 25.6 0 1 1 0 51.2H307.2a25.6 25.6 0 1 1 0-51.2h358.4z m-102.4-102.4a25.6 25.6 0 0 1 0 51.2H307.2a25.6 25.6 0 1 1 0-51.2h256z m199.68-435.2H261.12A56.32 56.32 0 0 0 204.8 235.52v215.296l3.6352 2.048c53.5552 28.4672 102.656 41.984 148.224 41.0624 32.6144 0.6656 50.688-3.072 69.1712-13.568 8.4992-4.7616 17.4592-11.008 31.3344-21.6064l0.6656-0.512 17.2544-13.3632 12.032-9.216c5.8368-4.5056 11.2128-8.6016 14.4896-11.008 63.3856-54.1184 140.6464-85.504 199.4752-84.224 49.3568 1.024 84.3264 11.1616 118.1696 32.9728L819.2 235.52a56.32 56.32 0 0 0-56.32-56.32zM352.1024 265.472c32.768 0 59.392 27.136 59.392 60.3136 0 33.28-26.624 60.416-59.392 60.416-32.6656 0-59.3408-27.0848-59.3408-60.416 0-33.2288 26.624-60.3136 59.392-60.3136z" p-id="4969"></path></svg>