<?xml version="1.0" standalone="no"?><!DOCTYPE svg PUBLIC "-//W3C//DTD SVG 1.1//EN" "http://www.w3.org/Graphics/SVG/1.1/DTD/svg11.dtd"><svg t="1745896887515" class="icon" viewBox="0 0 1024 1024" version="1.1" xmlns="http://www.w3.org/2000/svg" p-id="23085" xmlns:xlink="http://www.w3.org/1999/xlink" width="200" height="200"><path d="M370.0736 195.8912c14.0288 0 26.112 4.9152 36.1472 14.6432 10.0352 9.728 15.0528 21.6064 15.0528 35.7376v203.0592c0 14.0288-5.0176 26.112-15.0528 36.1472-10.0352 10.0352-22.016 15.0528-36.1472 15.0528H167.1168c-14.0288 0-26.0096-5.0176-35.7376-15.0528-9.728-10.0352-14.6432-22.016-14.6432-36.1472V246.272c0-14.0288 4.9152-26.0096 14.6432-35.7376s21.6064-14.6432 35.7376-14.6432h202.9568z m0 406.1184c14.0288 0 26.112 4.9152 36.1472 14.6432 10.0352 9.728 15.0528 21.6064 15.0528 35.7376v203.8784c0 14.0288-5.0176 26.0096-15.0528 35.7376-10.0352 9.728-22.016 14.6432-36.1472 14.6432H167.1168c-14.0288 0-26.0096-4.9152-35.7376-14.6432S116.736 870.4 116.736 856.2688V652.288c0-14.0288 4.9152-26.0096 14.6432-35.7376s21.6064-14.6432 35.7376-14.6432h202.9568z m406.8352 0c14.0288 0 26.0096 4.9152 35.7376 14.6432s14.6432 21.6064 14.6432 35.7376v203.8784c0 14.0288-4.9152 26.0096-14.6432 35.7376s-21.6064 14.6432-35.7376 14.6432H573.952c-14.0288 0-26.112-4.9152-36.1472-14.6432-10.0352-9.728-15.0528-21.6064-15.0528-35.7376V652.288c0-14.0288 5.0176-26.0096 15.0528-35.7376 10.0352-9.728 22.016-14.6432 36.1472-14.6432h202.9568zM889.856 285.2864c10.8544 10.8544 16.2816 23.552 16.2816 38.1952 0 14.6432-5.4272 27.0336-16.2816 37.376L738.816 511.7952c-10.8544 10.8544-23.4496 16.2816-37.7856 16.2816s-26.9312-5.4272-37.7856-16.2816L512.2048 360.7552c-10.24-10.24-15.4624-22.7328-15.4624-37.376s5.12-27.3408 15.4624-38.1952L663.2448 134.144c10.8544-10.24 23.4496-15.4624 37.7856-15.4624s26.9312 5.12 37.7856 15.4624L889.856 285.2864z m0 0" p-id="23086"></path></svg>