<?xml version="1.0" standalone="no"?><!DOCTYPE svg PUBLIC "-//W3C//DTD SVG 1.1//EN" "http://www.w3.org/Graphics/SVG/1.1/DTD/svg11.dtd"><svg t="1745896398373" class="icon" viewBox="0 0 1024 1024" version="1.1" xmlns="http://www.w3.org/2000/svg" p-id="3430" xmlns:xlink="http://www.w3.org/1999/xlink" width="200" height="200"><path d="M640 258.218667v507.562666c0 82.048-73.728 143.637333-152.853333 127.701334l-256-51.541334C171.2 829.888 128 776.405333 128 714.24V309.76c0-62.165333 43.2-115.626667 103.146667-127.701333l256-51.541334C566.293333 114.581333 640 176.170667 640 258.218667z m-140.416-63.850667l-256 51.541333C209.194667 252.8 192 274.112 192 309.76v404.48c0 35.648 17.194667 56.938667 51.584 63.850667l256 51.541333c19.776 3.968 37.461333-0.533333 53.034667-13.568 15.573333-13.013333 23.381333-29.781333 23.381333-50.282667V258.218667c0-20.501333-7.786667-37.269333-23.381333-50.282667-15.573333-13.013333-33.28-17.536-53.034667-13.568z m-48.938667 138.666667c19.477333 7.893333 32.170667 21.717333 38.08 41.472l0.149334 0.490666 0.170666 0.469334c8.256 20.266667 12.330667 41.322667 12.288 63.146666a201.216 201.216 0 0 1-7.466666 55.68 121.856 121.856 0 0 1-20.522667 41.664c-6.058667 7.829333-13.653333 13.845333-22.762667 18.048-10.517333 3.584-21.333333 4.906667-32.469333 4.010667l-0.213333-0.021333-81.834667-3.370667v102.976a10.197333 10.197333 0 0 1-3.754667 8.106667 10.197333 10.197333 0 0 1-8.618666 2.410666l-26.730667-4.330666c-5.973333-0.96-8.96-4.48-8.96-10.517334V364.714667c0-5.866667 2.88-9.344 8.64-10.453334l108.586667-21.034666a104.96 104.96 0 0 1 45.44-0.213334z m-46.037333 55.530666l-68.544 8.704v106.496h68.48a39.04 39.04 0 0 0 29.418667-9.898666l1.258666-1.109334 0.853334-1.429333a83.626667 83.626667 0 0 0 11.968-51.349333c-0.085333-26.24-6.762667-42.986667-20.096-50.282667l-0.96-0.533333-1.066667-0.32a37.333333 37.333333 0 0 0-21.312-0.277334zM770.133333 754.432l-52.074666 20.245333a21.568 21.568 0 0 0-11.968 29.333334l7.274666 15.381333c4.949333 10.453333 17.386667 15.317333 28.330667 11.093333l54.4-21.141333c30.314667-11.754667 54.549333-30.101333 72.704-55.04 18.133333-24.938667 27.221333-52.330667 27.221333-82.176V351.893333c0-29.866667-9.066667-57.258667-27.221333-82.197333s-42.389333-43.285333-72.682667-55.04l-54.421333-21.12a22.4 22.4 0 0 0-28.330667 11.072l-7.274666 15.36c-5.376 11.349333 0.106667 24.746667 11.946666 29.354667l52.096 20.224c18.197333 7.04 32.725333 18.069333 43.626667 33.024a81.92 81.92 0 0 1 16.32 49.322666v320.213334c0 17.92-5.44 34.346667-16.32 49.322666-10.901333 14.954667-25.429333 25.962667-43.626667 33.024z" p-id="3431" fill="#2c2c2c"></path></svg>